<svg viewBox="0 0 640 480" xmlns="http://www.w3.org/2000/svg" xmlns:svg="http://www.w3.org/2000/svg">
 <!-- Created with SVG-edit - https://github.com/SVG-Edit/svgedit-->
 <g class="layer">
  <title>Layer 1</title>
  <line fill="none" id="svg_4" opacity="0.5" stroke="#000000" stroke-width="5" x1="480.2" x2="480.2" y1="133.4" y2="133.4"/>
  <path d="m582.8,69.6c0,1.83 -0.86,2.05 -1,2.92c-0.13,0.78 0.15,1.81 -0.44,2.47c-0.61,0.7 -1.73,0.41 -2.56,0.78c-0.74,0.32 -1.53,0.73 -2.1,1.28c-0.63,0.6 -1.26,1.34 -2,1.78c-0.68,0.4 -1.48,0.71 -2.31,0.84c-1,0.15 -1.72,0.51 -2.54,0.92c-0.76,0.38 -1.41,0.72 -2.29,1.32c-0.77,0.53 -1.54,0.82 -2.28,1.2c-0.78,0.41 -1.65,0.49 -2.6,0.5c-0.77,0 -1.75,-0.16 -2.72,0.17c-0.81,0.27 -1.58,0.78 -2.15,1.33c-0.49,0.48 -1.24,0.49 -2.22,0.5c-0.82,0.01 -1.97,0.16 -2.48,0.28c-0.8,0.2 -1.97,0.61 -2.75,0.7c-0.89,0.09 -1.75,0.02 -2.68,0.02c-0.89,0 -1.8,0 -2.6,0c-0.81,0 -1.77,0 -2.69,0c-0.9,0 -1.8,0 -2.7,0c-0.9,0 -1.86,0 -1.9,0.8c-0.05,0.9 0,1.76 0,2.63c0,0.95 0,1.85 0,2.73c0,0.83 -0.03,1.81 0,2.67c0.03,0.82 0.8,1.15 1.7,1.17c0.9,0.02 1.68,0.43 2.35,1.05c0.65,0.6 1.45,0.93 2.35,0.95c0.9,0.01 1.58,0.42 1.6,1.33c0.02,0.85 0.22,1.85 -0.17,2.67c-0.36,0.76 -1.46,0.8 -2.13,1.36c-0.74,0.63 -0.55,1.69 -0.87,2.47c-0.33,0.8 -1.33,1.02 -2.04,1.23c-1.02,0.3 -1.59,0.83 -2.3,1.29c-0.8,0.52 -1.79,0.9 -2.51,1.13c-0.73,0.23 -1.81,0.52 -2.49,0.72c-0.95,0.28 -1.52,0.49 -2.57,0.68c-0.91,0.16 -1.61,0.18 -2.61,0.41c-0.84,0.19 -1.71,0.46 -2.61,0.59c-0.89,0.13 -1.76,0.1 -2.78,0.34c-0.71,0.17 -1.6,0.59 -2.61,0.98c-0.54,0.21 -1.37,0.48 -2.39,0.9c-0.68,0.28 -1.41,0.73 -2.51,0.89c-0.88,0.13 -1.35,0.76 -2.12,1.01c-0.9,0.29 -1.35,0.86 -2.3,1c-0.82,0.12 -1.61,-0.01 -2.6,0c-0.88,0.01 -1.34,0.78 -2.12,1c-0.86,0.24 -1.78,0 -2.68,0c-0.9,0 -1.8,0 -2.7,0c-0.9,0 -1.8,-0.34 -2.61,0.09c-0.86,0.45 -1.33,0.9 -2.29,0.91c-0.78,0.01 -1.76,0 -2.71,0c-0.69,0 -1.68,0 -2.57,0c-0.88,0 -1.76,0 -2.71,0c-0.78,0 -1.76,0.03 -2.71,0c-0.7,-0.03 -1.68,-0.3 -2.49,-0.57c-0.99,-0.33 -1.8,-0.41 -2.8,-0.43c-0.79,-0.01 -1.59,0.05 -2.36,-0.44c-0.84,-0.53 -1.34,-1.21 -2.14,-1.56c-0.8,-0.35 -1.53,-0.99 -2.3,-1c-0.96,-0.01 -1.86,0 -2.6,0c-0.99,0 -1.76,0 -2.84,0c-0.86,0 -1.78,0 -2.56,0c-0.96,0 -1.85,0 -2.71,0c-0.96,0 -1.78,0 -2.68,0c-0.9,0 -1.83,0 -2.6,0c-0.96,0 -1.85,0 -2.63,0c-1.01,0 -1.87,0 -2.77,0c-0.9,0 -1.83,0 -2.6,0c-0.9,0 -1.8,0 -2.76,0c-0.87,0 -1.74,0 -2.64,0c-0.9,0 -1.83,0 -2.6,0c-0.9,0 -1.93,-0.44 -2.76,0.04c-0.7,0.4 -1.1,0.96 -1.96,0.96c-0.71,0 -1.81,0 -2.68,0c-0.97,0 -1.8,0 -2.63,0c-0.86,0 -1.77,0 -2.67,0c-0.9,0 -1.8,0 -2.72,0c-0.88,0 -1.82,-0.18 -2.58,0.09c-0.86,0.3 -1.56,0.9 -2.52,0.91c-0.66,0.01 -1.59,0.34 -2.18,1c-0.5,0.56 -0.5,1.52 -0.5,2.4c0,0.9 -0.52,1.51 -1.17,2.1c-0.55,0.5 -1.04,1.22 -1.5,2.17c-0.37,0.75 -1.11,1.27 -1.33,2.04c-0.26,0.9 0.22,1.83 -0.06,2.59c-0.32,0.85 -1.33,1.16 -2.14,1.63c-0.78,0.44 -1.41,1.03 -1.71,1.91c-0.27,0.78 -0.88,1.26 -1.59,1.67c-0.79,0.46 -1.78,0.36 -2.45,0.85c-0.68,0.5 -1.55,0.46 -2.25,0.93c-0.8,0.53 -1.87,0.88 -1.79,1.71c0.08,0.79 1.82,-0.43 2.55,0.04c0.64,0.41 -0.44,0.96 -1.33,0.96c-0.92,0 -1.6,0 -2.27,0c-1.2,0 -2.22,0 -3.3,0c-0.64,0 -1.33,0 -2.05,0c-1.45,0 -2.13,0 -3.05,0c-0.79,0 -1.75,0.02 -2.73,0c-0.85,-0.02 -1.85,-0.3 -2.43,-0.71c-0.59,-0.41 -1.55,-1.05 -2.2,-1.38c-0.86,-0.43 -1.43,-1.33 -2.2,-1.75c-0.67,-0.36 -0.82,-1.21 -1.09,-1.97c-0.27,-0.78 -1.3,-1.26 -1.75,-2.03c-0.42,-0.73 -1.01,-1.05 -1.65,-1.69c-0.64,-0.64 -0.2,-1.96 -0.88,-2.42c-0.78,-0.53 -1.28,-0.49 -1.65,-1.35c-0.33,-0.77 -1.37,-0.95 -2.16,-0.53c-0.86,0.45 -1.16,1.15 -2.07,1.72c-0.74,0.46 -1.33,1.12 -1.59,2.11c-0.2,0.76 -0.17,1.76 -0.17,2.57c0,0.78 0,1.79 0,2.73c0,0.87 0,1.8 0,2.7c0,0.8 0,1.7 0,2.6c0,0.82 0.02,1.73 -0.01,2.66c-0.03,0.79 -0.19,1.82 -0.41,2.49c-0.26,0.77 -0.5,1.76 -0.93,2.55c-0.45,0.84 -0.65,1.7 -0.65,2.5c0,0.91 -0.24,1.65 -0.72,2.28c-0.58,0.77 -0.36,1.6 -0.78,2.44c-0.4,0.79 -0.46,1.73 -0.83,2.48c-0.43,0.85 -1.05,1.38 -1.87,1.98c-0.57,0.41 -1.36,0.76 -2.16,1.42c-0.78,0.65 -1.28,1.41 -2.14,1.58c-0.87,0.17 -1.37,-0.64 -1.5,-1.48c-0.16,-1 -0.82,-1.51 -1.77,-1.5c-0.73,0.01 -1.51,-0.04 -2.58,0.43c-0.66,0.29 -1.41,0.79 -2.17,1.04c-0.79,0.26 -1.79,0.47 -2.7,0.51c-0.94,0.04 -1.73,0.01 -2.55,0.01c-1.06,0 -1.98,0 -2.74,0c-1.08,0 -1.9,0.13 -2.79,0c-0.93,-0.14 -1.48,-0.78 -1.73,-1.7c-0.27,-1.04 -0.31,-1.65 -0.59,-2.58c-0.17,-0.58 -0.87,-1.5 -1.41,-2.25c-0.52,-0.72 -1,-1.46 -1.5,-1.97c-0.71,-0.73 -1.48,-1.33 -1.98,-2c-0.54,-0.71 -1,-1.33 -1.7,-1.76c-0.68,-0.41 -1.27,-1.24 -2,-1.91c-0.58,-0.54 -1.45,-0.78 -2.28,-1.09c-0.7,-0.25 -1.63,-0.67 -2.62,-0.72c-0.78,-0.03 -1.74,0 -2.5,0c-1,0 -1.83,-0.04 -2.8,0.29c-0.76,0.25 -1.29,1.03 -1.89,1.63c-0.68,0.69 -1.22,1.12 -1.71,2.08c-0.31,0.6 -0.72,1.45 -1.1,2.42c-0.31,0.79 -0.54,1.3 -0.78,2.44c-0.17,0.82 0.21,1.81 -0.14,2.62c-0.33,0.76 -1.2,1.29 -1.68,1.82c-0.68,0.76 -1.21,1.18 -1.58,1.91c-0.44,0.86 -0.46,1.67 -0.79,2.4c-0.38,0.86 -1.29,1.02 -2.29,1.37c-0.84,0.29 -1.36,0.92 -2.14,1.5c-0.74,0.56 -1.67,0.52 -2.5,0.52c-0.98,0 -1.72,-0.2 -2,-1c-0.24,-0.71 -1.25,-0.48 -1.83,0.2c-0.62,0.71 -1.06,1.16 -2,1.8c-0.56,0.38 -1.35,0.98 -1.98,1.4c-0.87,0.57 -1.24,1.39 -2.05,1.56c-0.95,0.21 -1.85,0.06 -2.62,0.54c-0.76,0.47 -1.68,0.32 -2.52,0.67c-0.78,0.32 -1.61,0.65 -2.3,1.19c-0.74,0.58 -0.92,1.58 -1.87,1.64c-0.65,0.04 -1.72,0 -1.92,0.72l-0.86,0.28l-0.85,0" fill="none" id="svg_24" stroke="#aad4ff" stroke-width="5"/>
 </g>
</svg>